<svg width="25" height="25" viewBox="0 0 25 25" fill="none" xmlns="http://www.w3.org/2000/svg">
<path d="M14.5 23.3125H10.3333C6.40521 23.3125 4.44062 23.3125 3.22083 22.0917C2 20.8719 2 18.9073 2 14.9792V12.8958C2 8.96771 2 7.00312 3.22083 5.78333C4.44062 4.5625 6.40521 4.5625 10.3333 4.5625H14.5C18.4281 4.5625 20.3927 4.5625 21.6125 5.78333C22.8333 7.00312 22.8333 8.96771 22.8333 12.8958V14.9792C22.8333 18.9073 22.8333 20.8719 21.6125 22.0917C20.9323 22.7729 20.0208 23.074 18.6667 23.2062M7.20833 4.5625V3M17.625 4.5625V3M22.3125 9.77083H11.1146M2 9.77083H6.03646" stroke="#138AEF" stroke-width="1.5625" stroke-linecap="round"/>
<path d="M18.5001 18.2083C18.5001 18.4846 18.3903 18.7496 18.195 18.9449C17.9996 19.1403 17.7347 19.25 17.4584 19.25C17.1822 19.25 16.9172 19.1403 16.7219 18.9449C16.5265 18.7496 16.4168 18.4846 16.4168 18.2083C16.4168 17.9321 16.5265 17.6671 16.7219 17.4718C16.9172 17.2764 17.1822 17.1667 17.4584 17.1667C17.7347 17.1667 17.9996 17.2764 18.195 17.4718C18.3903 17.6671 18.5001 17.9321 18.5001 18.2083ZM18.5001 14.0417C18.5001 14.3179 18.3903 14.5829 18.195 14.7782C17.9996 14.9736 17.7347 15.0833 17.4584 15.0833C17.1822 15.0833 16.9172 14.9736 16.7219 14.7782C16.5265 14.5829 16.4168 14.3179 16.4168 14.0417C16.4168 13.7654 16.5265 13.5004 16.7219 13.3051C16.9172 13.1097 17.1822 13 17.4584 13C17.7347 13 17.9996 13.1097 18.195 13.3051C18.3903 13.5004 18.5001 13.7654 18.5001 14.0417ZM13.2918 18.2083C13.2918 18.4846 13.182 18.7496 12.9867 18.9449C12.7913 19.1403 12.5264 19.25 12.2501 19.25C11.9738 19.25 11.7089 19.1403 11.5135 18.9449C11.3182 18.7496 11.2084 18.4846 11.2084 18.2083C11.2084 17.9321 11.3182 17.6671 11.5135 17.4718C11.7089 17.2764 11.9738 17.1667 12.2501 17.1667C12.5264 17.1667 12.7913 17.2764 12.9867 17.4718C13.182 17.6671 13.2918 17.9321 13.2918 18.2083ZM13.2918 14.0417C13.2918 14.3179 13.182 14.5829 12.9867 14.7782C12.7913 14.9736 12.5264 15.0833 12.2501 15.0833C11.9738 15.0833 11.7089 14.9736 11.5135 14.7782C11.3182 14.5829 11.2084 14.3179 11.2084 14.0417C11.2084 13.7654 11.3182 13.5004 11.5135 13.3051C11.7089 13.1097 11.9738 13 12.2501 13C12.5264 13 12.7913 13.1097 12.9867 13.3051C13.182 13.5004 13.2918 13.7654 13.2918 14.0417ZM8.08342 18.2083C8.08342 18.4846 7.97368 18.7496 7.77833 18.9449C7.58298 19.1403 7.31803 19.25 7.04176 19.25C6.76549 19.25 6.50054 19.1403 6.30519 18.9449C6.10984 18.7496 6.00009 18.4846 6.00009 18.2083C6.00009 17.9321 6.10984 17.6671 6.30519 17.4718C6.50054 17.2764 6.76549 17.1667 7.04176 17.1667C7.31803 17.1667 7.58298 17.2764 7.77833 17.4718C7.97368 17.6671 8.08342 17.9321 8.08342 18.2083ZM8.08342 14.0417C8.08342 14.3179 7.97368 14.5829 7.77833 14.7782C7.58298 14.9736 7.31803 15.0833 7.04176 15.0833C6.76549 15.0833 6.50054 14.9736 6.30519 14.7782C6.10984 14.5829 6.00009 14.3179 6.00009 14.0417C6.00009 13.7654 6.10984 13.5004 6.30519 13.3051C6.50054 13.1097 6.76549 13 7.04176 13C7.31803 13 7.58298 13.1097 7.77833 13.3051C7.97368 13.5004 8.08342 13.7654 8.08342 14.0417Z" fill="#138AEF"/>
</svg>
