<svg width="25" height="25" viewBox="0 0 25 25" fill="none" xmlns="http://www.w3.org/2000/svg">
<g clip-path="url(#clip0_76_235)">
<path d="M25 9.8125C25.0006 9.47311 24.9112 9.13963 24.741 8.84597C24.5709 8.55231 24.326 8.30895 24.0313 8.14063L13.5 1.89063C13.1965 1.71355 12.8514 1.62024 12.5 1.62024C12.1486 1.62024 11.8035 1.71355 11.5 1.89063L0.953161 8.14063C0.661711 8.31357 0.420274 8.55936 0.252579 8.85386C0.0848847 9.14836 -0.0032959 9.48142 -0.0032959 9.82032C-0.0032959 10.1592 0.0848847 10.4923 0.252579 10.7868C0.420274 11.0813 0.661711 11.3271 0.953161 11.5L3.95316 13.25V17.6406C3.95497 17.9838 4.04503 18.3207 4.21469 18.6189C4.38435 18.9172 4.62789 19.1668 4.92191 19.3438L11.5625 23.1719C11.859 23.336 12.1924 23.4222 12.5313 23.4222C12.8702 23.4222 13.2035 23.336 13.5 23.1719L20.1407 19.3438C20.4347 19.1668 20.6782 18.9172 20.8479 18.6189C21.0175 18.3207 21.1076 17.9838 21.1094 17.6406V13.2031L23.0469 12.0625V16.3125H25V9.8125ZM19.1719 17.625L12.5 21.4688L5.90629 17.6406V14.4063L11.5 17.7344C11.8046 17.9084 12.1493 17.9999 12.5 17.9999C12.8508 17.9999 13.1955 17.9084 13.5 17.7344L19.1563 14.3594L19.1719 17.625ZM12.5 16.0469L1.95316 9.79688L12.5 3.53125L23.0469 9.78125L12.5 16.0469Z" fill="#138AEF"/>
</g>
<defs>
<clipPath id="clip0_76_235">
<rect width="25" height="25" fill="white"/>
</clipPath>
</defs>
</svg>
