<svg width="26" height="26" viewBox="0 0 26 26" fill="none" xmlns="http://www.w3.org/2000/svg">
<path d="M13 16.125V19.25M23.4167 13.2125V14.7969C23.4167 18.8594 23.4167 20.8917 22.1958 22.1542C20.976 23.4167 19.0115 23.4167 15.0833 23.4167H10.9167C6.98854 23.4167 5.02395 23.4167 3.80416 22.1542C2.58333 20.8917 2.58333 18.8605 2.58333 14.7969V13.2125C2.58333 10.8282 2.58333 9.6365 3.12499 8.649C3.66458 7.66046 4.65312 7.04796 6.62916 5.82087L8.71249 4.52817C10.801 3.23129 11.8458 2.58337 13 2.58337C14.1542 2.58337 15.1979 3.23129 17.2875 4.52817L19.3708 5.82087C21.3469 7.04796 22.3354 7.66046 22.876 8.649" stroke="#138AEF" stroke-width="2" stroke-linecap="round"/>
</svg>
