<svg width="25" height="25" viewBox="0 0 25 25" fill="none" xmlns="http://www.w3.org/2000/svg">
<path d="M4.16666 6.25002C4.16666 5.69749 4.38615 5.16758 4.77685 4.77688C5.16755 4.38618 5.69746 4.16669 6.24999 4.16669H8.33332C8.88586 4.16669 9.41576 4.38618 9.80646 4.77688C10.1972 5.16758 10.4167 5.69749 10.4167 6.25002V7.29169C10.4167 7.84422 10.1972 8.37412 9.80646 8.76483C9.41576 9.15553 8.88586 9.37502 8.33332 9.37502H6.24999C5.69746 9.37502 5.16755 9.15553 4.77685 8.76483C4.38615 8.37412 4.16666 7.84422 4.16666 7.29169V6.25002ZM4.16666 15.625C4.16666 15.0725 4.38615 14.5426 4.77685 14.1519C5.16755 13.7612 5.69746 13.5417 6.24999 13.5417H8.33332C8.88586 13.5417 9.41576 13.7612 9.80646 14.1519C10.1972 14.5426 10.4167 15.0725 10.4167 15.625V18.75C10.4167 19.3026 10.1972 19.8325 9.80646 20.2232C9.41576 20.6139 8.88586 20.8334 8.33332 20.8334H6.24999C5.69746 20.8334 5.16755 20.6139 4.77685 20.2232C4.38615 19.8325 4.16666 19.3026 4.16666 18.75V15.625ZM14.5833 6.25002C14.5833 5.69749 14.8028 5.16758 15.1935 4.77688C15.5842 4.38618 16.1141 4.16669 16.6667 4.16669H18.75C19.3025 4.16669 19.8324 4.38618 20.2231 4.77688C20.6138 5.16758 20.8333 5.69749 20.8333 6.25002V18.75C20.8333 19.3026 20.6138 19.8325 20.2231 20.2232C19.8324 20.6139 19.3025 20.8334 18.75 20.8334H16.6667C16.1141 20.8334 15.5842 20.6139 15.1935 20.2232C14.8028 19.8325 14.5833 19.3026 14.5833 18.75V6.25002Z" stroke="#138AEF" stroke-width="2.08333" stroke-linecap="round" stroke-linejoin="round"/>
</svg>
