<svg width="26" height="26" viewBox="0 0 26 26" fill="none" xmlns="http://www.w3.org/2000/svg">
<g clip-path="url(#clip0_20_8)">
<path d="M14.6874 2.875C17.2235 2.875 19.6558 3.88248 21.4491 5.67579C23.2424 7.46911 24.2499 9.90137 24.2499 12.4375C24.2499 14.9736 23.2424 17.4059 21.4491 19.1992C19.6558 20.9925 17.2235 22 14.6874 22H14.1249V23.1138C14.1249 23.2631 14.0955 23.4109 14.0383 23.5488C13.9811 23.6868 13.8973 23.8121 13.7917 23.9176C13.6861 24.0231 13.5607 24.1068 13.4227 24.1638C13.2847 24.2209 13.1368 24.2501 12.9875 24.25C10.22 24.2477 7.41653 23.3241 5.28916 21.433C3.14266 19.5228 1.75216 16.6844 1.74991 13.0101V12.4375C1.74991 9.90137 2.75738 7.46911 4.5507 5.67579C6.34402 3.88248 8.77628 2.875 11.3124 2.875H14.6874ZM14.6874 5.125H11.3124C9.37301 5.125 7.51305 5.89542 6.14169 7.26678C4.77033 8.63814 3.99991 10.4981 3.99991 12.4375L4.00103 13.1856C4.04603 16.1579 5.17216 18.3179 6.78541 19.7511C8.17816 20.9909 9.98153 21.73 11.8749 21.9381V20.8862C11.8749 20.2585 12.3834 19.75 13.0112 19.75H14.6874C16.6268 19.75 18.4868 18.9796 19.8581 17.6082C21.2295 16.2369 21.9999 14.3769 21.9999 12.4375C21.9999 10.4981 21.2295 8.63814 19.8581 7.26678C18.4868 5.89542 16.6268 5.125 14.6874 5.125ZM9.06241 10.75C9.50996 10.75 9.93918 10.9278 10.2557 11.2443C10.5721 11.5607 10.7499 11.9899 10.7499 12.4375C10.7499 12.8851 10.5721 13.3143 10.2557 13.6307C9.93918 13.9472 9.50996 14.125 9.06241 14.125C8.61485 14.125 8.18563 13.9472 7.86916 13.6307C7.5527 13.3143 7.37491 12.8851 7.37491 12.4375C7.37491 11.9899 7.5527 11.5607 7.86916 11.2443C8.18563 10.9278 8.61485 10.75 9.06241 10.75ZM16.9374 10.75C17.385 10.75 17.8142 10.9278 18.1306 11.2443C18.4471 11.5607 18.6249 11.9899 18.6249 12.4375C18.6249 12.8851 18.4471 13.3143 18.1306 13.6307C17.8142 13.9472 17.385 14.125 16.9374 14.125C16.4899 14.125 16.0606 13.9472 15.7442 13.6307C15.4277 13.3143 15.2499 12.8851 15.2499 12.4375C15.2499 11.9899 15.4277 11.5607 15.7442 11.2443C16.0606 10.9278 16.4899 10.75 16.9374 10.75Z" fill="#13161C"/>
</g>
<defs>
<clipPath id="clip0_20_8">
<rect width="25" height="25" fill="white" transform="translate(0.5 0.5)"/>
</clipPath>
</defs>
</svg>
