<svg width="17" height="17" viewBox="0 0 17 17" fill="none" xmlns="http://www.w3.org/2000/svg">
<path d="M6.76923 14.661C6.86897 15.0445 7.093 15.3839 7.40622 15.6262C7.71943 15.8685 8.10412 16 8.5 16C8.89588 16 9.28057 15.8685 9.59378 15.6262C9.907 15.3839 10.131 15.0445 10.2308 14.661M8.5 1C9.81282 1 11.0719 1.52194 12.0002 2.45099C12.9285 3.38005 13.45 4.64012 13.45 5.95401C13.45 11.4623 15.4577 12.5478 16 12.5478H1C1.55385 12.5478 3.55 11.4508 3.55 5.95401C3.55 4.64012 4.07152 3.38005 4.99982 2.45099C5.92813 1.52194 7.18718 1 8.5 1Z" stroke="#138AEF" stroke-width="1.78571" stroke-linecap="round" stroke-linejoin="round"/>
</svg>
