<svg width="25" height="25" viewBox="0 0 25 25" fill="none" xmlns="http://www.w3.org/2000/svg">
<path d="M22.9 10.4167C22.8615 9.05105 22.7323 8.18022 22.2948 7.43751C21.6719 6.38022 20.5511 5.79168 18.3104 4.61668L16.2271 3.52293C14.3979 2.56355 13.4833 2.08334 12.5 2.08334C11.5167 2.08334 10.6021 2.56251 8.77293 3.52293L6.68959 4.61668C4.44897 5.79168 3.32813 6.38022 2.70522 7.43751C2.08334 8.49376 2.08334 9.80938 2.08334 12.4375V12.5594C2.08334 15.1896 2.08334 16.5052 2.70522 17.5615C3.32813 18.6188 4.44897 19.2073 6.68959 20.3833L8.77293 21.4761C10.6021 22.4365 11.5167 22.9167 12.5 22.9167C13.4833 22.9167 14.3979 22.4375 16.2271 21.4771L18.3104 20.3833C20.5511 19.2073 21.6719 18.6198 22.2948 17.5625C22.7323 16.8198 22.8615 15.949 22.9 14.5833M21.875 7.81251L17.7083 9.89584M17.7083 9.89584L17.1875 10.1563L12.5 12.5M17.7083 9.89584V13.5417M17.7083 9.89584L7.81251 4.68751M12.5 12.5L3.12501 7.81251M12.5 12.5V22.3958" stroke="#138AEF" stroke-width="1.5625" stroke-linecap="round"/>
</svg>
