<svg width="25" height="25" viewBox="0 0 25 25" fill="none" xmlns="http://www.w3.org/2000/svg">
<g clip-path="url(#clip0_134_178)">
<path fill-rule="evenodd" clip-rule="evenodd" d="M16.6667 14.5833C18.0088 14.5834 19.2991 15.1016 20.2685 16.0298C21.2379 16.9581 21.8115 18.2247 21.8698 19.5656L21.875 19.7916V20.8333C21.8752 21.3589 21.6767 21.8652 21.3193 22.2505C20.9619 22.6359 20.472 22.872 19.9479 22.9114L19.7917 22.9166H5.20833C4.68273 22.9168 4.17649 22.7183 3.7911 22.3609C3.4057 22.0035 3.16963 21.5137 3.13021 20.9896L3.125 20.8333V19.7916C3.12508 18.4495 3.64327 17.1592 4.57152 16.1898C5.49977 15.2204 6.76641 14.6468 8.10729 14.5885L8.33333 14.5833H16.6667ZM16.6667 16.6666H8.33333C7.53624 16.6666 6.76926 16.9712 6.18931 17.518C5.60937 18.0648 5.2603 18.8126 5.21354 19.6083L5.20833 19.7916V20.8333H19.7917V19.7916C19.7917 18.9946 19.4872 18.2276 18.9403 17.6476C18.3935 17.0677 17.6457 16.7186 16.85 16.6719L16.6667 16.6666ZM12.5 2.08331C13.8813 2.08331 15.2061 2.63205 16.1828 3.6088C17.1596 4.58555 17.7083 5.91031 17.7083 7.29165C17.7083 8.67298 17.1596 9.99774 16.1828 10.9745C15.2061 11.9512 13.8813 12.5 12.5 12.5C11.1187 12.5 9.7939 11.9512 8.81715 10.9745C7.8404 9.99774 7.29167 8.67298 7.29167 7.29165C7.29167 5.91031 7.8404 4.58555 8.81715 3.6088C9.7939 2.63205 11.1187 2.08331 12.5 2.08331ZM12.5 4.16665C12.0896 4.16665 11.6833 4.24748 11.3041 4.40452C10.925 4.56157 10.5805 4.79175 10.2903 5.08194C10.0001 5.37212 9.76992 5.71662 9.61288 6.09576C9.45583 6.4749 9.375 6.88127 9.375 7.29165C9.375 7.70203 9.45583 8.10839 9.61288 8.48753C9.76992 8.86667 10.0001 9.21117 10.2903 9.50136C10.5805 9.79154 10.925 10.0217 11.3041 10.1788C11.6833 10.3358 12.0896 10.4166 12.5 10.4166C13.3288 10.4166 14.1237 10.0874 14.7097 9.50136C15.2958 8.9153 15.625 8.12045 15.625 7.29165C15.625 6.46284 15.2958 5.66799 14.7097 5.08194C14.1237 4.49589 13.3288 4.16665 12.5 4.16665Z" fill="#138AEF"/>
</g>
<defs>
<clipPath id="clip0_134_178">
<rect width="25" height="25" fill="white"/>
</clipPath>
</defs>
</svg>
