<svg width="22" height="23" viewBox="0 0 22 23" fill="none" xmlns="http://www.w3.org/2000/svg">
<g clip-path="url(#clip0_20_4)">
<path d="M9.42858 5.21436H6.28572C5.41785 5.21436 4.71429 5.91791 4.71429 6.78578V9.92864C4.71429 10.7965 5.41785 11.5001 6.28572 11.5001H9.42858C10.2965 11.5001 11 10.7965 11 9.92864V6.78578C11 5.91791 10.2965 5.21436 9.42858 5.21436Z" stroke="#13161C" stroke-width="2" stroke-linecap="round" stroke-linejoin="round"/>
<path d="M4.71429 1.28577H2.35715C1.94038 1.28577 1.54068 1.45133 1.24598 1.74603C0.951282 2.04073 0.785721 2.44043 0.785721 2.8572V5.21434M17.2857 1.28577H19.6429C20.0596 1.28577 20.4593 1.45133 20.754 1.74603C21.0487 2.04073 21.2143 2.44043 21.2143 2.8572V5.21434M4.71429 21.7143H2.35715C1.94038 21.7143 1.54068 21.5488 1.24598 21.2541C0.951282 20.9594 0.785721 20.5597 0.785721 20.1429V17.7858M17.2857 21.7143H19.6429C20.0596 21.7143 20.4593 21.5488 20.754 21.2541C21.0487 20.9594 21.2143 20.5597 21.2143 20.1429V17.7858M4.71429 15.4286V17.7858H7.07143M11 17.7858V15.4286H8.64286M17.2857 7.57148H14.9286V5.21434M17.2857 13.0715V10.7143H14.9286M14.9286 15.4286V17.7858H17.2857" stroke="#13161C" stroke-width="2" stroke-linecap="round" stroke-linejoin="round"/>
</g>
<defs>
<clipPath id="clip0_20_4">
<rect width="22" height="22" fill="white" transform="translate(0 0.5)"/>
</clipPath>
</defs>
</svg>
