<svg width="25" height="25" viewBox="0 0 25 25" fill="none" xmlns="http://www.w3.org/2000/svg">
<path d="M3.125 14.5833V10.4166C3.125 6.48852 3.125 4.52394 4.34583 3.30415C5.56562 2.08331 7.53021 2.08331 11.4583 2.08331H13.5417C17.4698 2.08331 19.4344 2.08331 20.6542 3.30415C21.3354 3.98435 21.6365 4.89581 21.7688 6.24998M21.875 10.4166V14.5833C21.875 18.5114 21.875 20.476 20.6542 21.6958C19.4344 22.9166 17.4698 22.9166 13.5417 22.9166H11.4583C7.53021 22.9166 5.56562 22.9166 4.34583 21.6958C3.66458 21.0156 3.36354 20.1041 3.23125 18.75M8.33333 14.5833H13.5417M8.33333 10.4166H9.375M16.6667 10.4166H12.5" stroke="#138AEF" stroke-width="1.5625" stroke-linecap="round"/>
</svg>
