<svg width="25" height="26" viewBox="0 0 25 26" fill="none" xmlns="http://www.w3.org/2000/svg">
<path fill-rule="evenodd" clip-rule="evenodd" d="M0 6.54348C0 6.26673 0.112882 6.00132 0.313814 5.80563C0.514746 5.60994 0.787268 5.5 1.07143 5.5H23.9286C24.2127 5.5 24.4853 5.60994 24.6862 5.80563C24.8871 6.00132 25 6.26673 25 6.54348C25 6.82023 24.8871 7.08564 24.6862 7.28133C24.4853 7.47702 24.2127 7.58696 23.9286 7.58696H1.07143C0.787268 7.58696 0.514746 7.47702 0.313814 7.28133C0.112882 7.08564 0 6.82023 0 6.54348ZM0 13.5C0 13.2233 0.112882 12.9578 0.313814 12.7622C0.514746 12.5665 0.787268 12.4565 1.07143 12.4565H16.7857C17.0699 12.4565 17.3424 12.5665 17.5433 12.7622C17.7443 12.9578 17.8571 13.2233 17.8571 13.5C17.8571 13.7767 17.7443 14.0422 17.5433 14.2379C17.3424 14.4335 17.0699 14.5435 16.7857 14.5435H1.07143C0.787268 14.5435 0.514746 14.4335 0.313814 14.2379C0.112882 14.0422 0 13.7767 0 13.5ZM0 20.4565C0 20.1798 0.112882 19.9144 0.313814 19.7187C0.514746 19.523 0.787268 19.413 1.07143 19.413H8.21429C8.49845 19.413 8.77097 19.523 8.9719 19.7187C9.17283 19.9144 9.28571 20.1798 9.28571 20.4565C9.28571 20.7333 9.17283 20.9987 8.9719 21.1944C8.77097 21.3901 8.49845 21.5 8.21429 21.5H1.07143C0.787268 21.5 0.514746 21.3901 0.313814 21.1944C0.112882 20.9987 0 20.7333 0 20.4565Z" fill="#13161C"/>
</svg>
