<svg width="25" height="26" viewBox="0 0 25 26" fill="none" xmlns="http://www.w3.org/2000/svg">
<path d="M12.5 16.125C14.2259 16.125 15.625 14.7259 15.625 13C15.625 11.2741 14.2259 9.875 12.5 9.875C10.7741 9.875 9.375 11.2741 9.375 13C9.375 14.7259 10.7741 16.125 12.5 16.125Z" stroke="black" stroke-width="1.5625"/>
<path d="M3.81377 11.5833C4.30648 11.8917 4.62314 12.4188 4.62314 13C4.62314 13.5813 4.30648 14.1083 3.81377 14.4167C3.47939 14.6281 3.26273 14.7958 3.1096 14.9958C2.94303 15.213 2.82086 15.4608 2.75009 15.7251C2.67931 15.9895 2.6613 16.2652 2.6971 16.5365C2.75127 16.9469 2.99398 17.3677 3.47835 18.2083C3.96481 19.049 4.20752 19.4688 4.53564 19.7219C4.75276 19.8885 5.00057 20.0106 5.26492 20.0814C5.52926 20.1522 5.80496 20.1702 6.07627 20.1344C6.32627 20.1011 6.57939 19.999 6.92939 19.8136C7.17987 19.6765 7.46108 19.6053 7.74661 19.6068C8.03214 19.6082 8.31262 19.6823 8.56168 19.8219C9.06481 20.1136 9.36377 20.65 9.3846 21.2313C9.39918 21.6271 9.43668 21.8979 9.53356 22.1302C9.63826 22.3832 9.79178 22.613 9.98535 22.8065C10.1789 23.0001 10.4087 23.1536 10.6617 23.2583C11.044 23.4167 11.5294 23.4167 12.5002 23.4167C13.4711 23.4167 13.9565 23.4167 14.3388 23.2583C14.5917 23.1536 14.8215 23.0001 15.0151 22.8065C15.2087 22.613 15.3622 22.3832 15.4669 22.1302C15.5627 21.8979 15.6013 21.6271 15.6158 21.2313C15.6367 20.65 15.9356 20.1125 16.4388 19.8219C16.6878 19.6823 16.9683 19.6082 17.2538 19.6068C17.5394 19.6053 17.8206 19.6765 18.0711 19.8136C18.4211 19.999 18.6752 20.1011 18.9252 20.1344C19.4728 20.2064 20.0266 20.058 20.4648 19.7219C20.7929 19.4698 21.0356 19.049 21.5211 18.2083C21.7377 17.8333 21.9054 17.5427 22.0304 17.299M21.1867 14.4177C20.9428 14.2695 20.7406 14.0617 20.599 13.8139C20.4574 13.5661 20.3812 13.2864 20.3773 13.0011C20.3773 12.4188 20.694 11.8917 21.1867 11.5823C21.5211 11.3719 21.7367 11.2042 21.8908 11.0042C22.0574 10.7871 22.1796 10.5392 22.2504 10.2749C22.3211 10.0106 22.3391 9.73486 22.3033 9.46355C22.2492 9.05313 22.0065 8.6323 21.5221 7.79168C21.0356 6.95105 20.7929 6.53126 20.4648 6.27813C20.2477 6.11156 19.9999 5.9894 19.7355 5.91862C19.4712 5.84784 19.1955 5.82984 18.9242 5.86564C18.6742 5.89897 18.4211 6.00105 18.07 6.18647C17.8197 6.32336 17.5386 6.39441 17.2533 6.39295C16.968 6.39149 16.6877 6.31758 16.4388 6.17814C16.1934 6.0322 15.9892 5.8263 15.8452 5.57977C15.7013 5.33324 15.6223 5.05417 15.6158 4.76876C15.6013 4.37293 15.5638 4.10209 15.4669 3.8698C15.3622 3.61687 15.2087 3.38704 15.0151 3.19347C14.8215 2.9999 14.5917 2.84638 14.3388 2.74168C13.9565 2.58334 13.4711 2.58334 12.5002 2.58334C11.5294 2.58334 11.044 2.58334 10.6617 2.74168C10.4087 2.84638 10.1789 2.9999 9.98535 3.19347C9.79178 3.38704 9.63826 3.61687 9.53356 3.8698C9.43773 4.10209 9.39918 4.37293 9.3846 4.76876C9.37811 5.05417 9.29918 5.33324 9.15524 5.57977C9.01129 5.8263 8.80704 6.0322 8.56168 6.17814C8.31262 6.31776 8.03214 6.39178 7.74661 6.39324C7.46108 6.3947 7.17987 6.32355 6.92939 6.18647C6.57939 6.00105 6.32522 5.89897 6.07522 5.86564C5.52764 5.79362 4.97387 5.942 4.53564 6.27813C4.20856 6.53126 3.96481 6.95105 3.47939 7.79168C3.26273 8.16668 3.09502 8.4573 2.97002 8.70105" stroke="black" stroke-width="1.5625" stroke-linecap="round"/>
</svg>
