<svg width="25" height="25" viewBox="0 0 25 25" fill="none" xmlns="http://www.w3.org/2000/svg">
<path d="M12.2253 1.0376C10.3605 1.0376 8.85767 2.53877 8.85767 4.40371C8.85767 6.2686 10.3605 7.77129 12.2253 7.77129C14.0902 7.77129 15.5915 6.2686 15.5915 4.40361C15.5915 2.53877 14.0902 1.0376 12.2253 1.0376ZM12.0972 2.68701C12.1028 2.68687 12.1084 2.68726 12.114 2.68701C10.8029 5.31411 14.6739 5.93994 14.0991 3.12803C14.3077 3.21558 14.5269 3.31543 14.7598 3.42866C14.9461 4.17368 14.9331 4.93394 14.6454 5.6793C12.366 6.21675 12.0061 6.21777 9.84195 5.60146C9.58096 4.8814 9.54752 4.14824 9.7275 3.42861C10.6726 2.96172 11.3912 2.71514 12.0971 2.68691L12.0972 2.68701ZM16.8549 5.9082C16.7934 5.90674 16.6304 5.94482 16.3834 6.13403C16.3831 6.13433 16.3823 6.13374 16.3819 6.13403C16.2574 6.22947 16.1307 6.32208 16.002 6.41177C15.2811 7.76147 13.8582 8.68374 12.2254 8.68374C10.5945 8.68374 9.17252 7.76353 8.45035 6.41631C8.3016 6.33528 8.15359 6.25289 8.00635 6.16914C7.77945 6.04014 7.64649 6.0312 7.58365 6.04248C7.52066 6.05371 7.4775 6.07627 7.40508 6.18896C7.26026 6.41436 7.14551 6.9894 7.17774 7.65527C7.20997 8.32129 7.36338 9.07988 7.60499 9.72139C7.84659 10.3629 8.18882 10.8774 8.49151 11.0871C10.9725 12.8055 13.3443 12.4288 15.889 11.0611C16.2008 10.8936 16.5683 10.3889 16.8228 9.71987C17.0774 9.05093 17.233 8.23853 17.2593 7.53027C17.2856 6.82197 17.1474 6.21289 17.0044 6.01196C16.933 5.91147 16.9166 5.90962 16.8549 5.9082ZM6.26221 7.07397C5.25479 7.52515 4.45762 8.33506 3.8376 9.44673C4.05294 9.45566 4.26631 9.48784 4.47237 9.54282C5.06905 9.702 5.57159 10.043 5.94024 10.4889C6.16374 10.2432 6.40776 10.0171 6.66963 9.81289C6.43926 9.13154 6.29869 8.39004 6.26534 7.69951C6.25489 7.48506 6.25264 7.27568 6.26221 7.07388V7.07397ZM18.1138 8.25806C18.0366 8.86377 17.8896 9.48159 17.6758 10.0434C17.558 10.353 17.4222 10.6485 17.2607 10.9146C17.436 11.1128 17.5998 11.3233 17.7505 11.5479C17.8638 11.3705 17.9958 11.2057 18.1442 11.0565V11.0551C18.5437 10.6557 19.0352 10.4003 19.5526 10.286C19.1586 9.46377 18.6824 8.78262 18.1137 8.25811L18.1138 8.25806ZM3.72608 10.3591C3.20445 10.3613 2.67491 10.5627 2.34366 10.9588C1.99561 11.375 1.80469 12.0458 2.09034 13.0768C2.09698 13.0722 2.10352 13.0675 2.11021 13.0631C2.50621 12.7958 3.00093 12.6446 3.53531 12.6694C3.71343 12.6776 3.89654 12.7052 4.0816 12.7548C4.60025 12.8938 5.017 13.1716 5.31597 13.5223C5.67994 13.0374 5.76568 12.503 5.6731 12.001C5.53799 11.2692 4.99415 10.6267 4.23721 10.4248C4.07047 10.3805 3.89861 10.3584 3.72608 10.3592V10.3591ZM20.1567 11.1297C20.1221 11.1304 20.0877 11.1319 20.053 11.1343C19.5901 11.1662 19.136 11.3542 18.7896 11.7005C18.3079 12.1833 18.0709 12.9613 18.3074 13.6079C18.4939 14.1176 18.9784 14.6185 20.0149 14.8865C20.0142 14.8779 20.0125 14.8692 20.0118 14.8606C19.9674 14.2254 20.1893 13.5438 20.7306 13.0021L20.7305 13.0006C21.1101 12.6213 21.5592 12.4006 22.0122 12.317C21.7744 11.7589 21.3551 11.4166 20.8739 11.2458C20.6437 11.1645 20.4008 11.1253 20.1567 11.1298V11.1297ZM15.2038 12.3978C13.2557 13.2141 11.24 13.4279 9.25748 12.5595L8.76607 14.479C9.20103 14.6135 9.56768 14.8611 9.84029 15.1748C10.1994 15.5879 10.4072 16.1018 10.469 16.6305C11.7009 14.6983 13.8962 15.4482 14.4683 18.0557C12.9962 19.2428 12.9534 21.8892 14.5889 22.937C15.2715 22.0764 16.259 21.4873 17.2897 21.3379C17.4375 21.3164 17.5871 21.3057 17.7368 21.3043C17.7866 21.3037 17.8365 21.3042 17.8863 21.3059C18.2397 21.3188 18.5922 21.3906 18.927 21.5286C19.1856 20.7438 19.1258 19.8371 18.7713 19.0796C18.3982 19.3065 17.937 19.4412 17.4118 19.4412C16.5993 19.4412 15.9396 19.1207 15.5227 18.631C15.106 18.1413 14.9248 17.5098 14.9414 16.8915C14.958 16.2732 15.1704 15.6557 15.5884 15.1749C15.6597 15.0933 15.7367 15.0168 15.8189 14.9461L15.2039 12.3979L15.2038 12.3978ZM22.3785 13.1897C22.0338 13.1978 21.6963 13.324 21.3744 13.6459C21.0065 14.0138 20.8935 14.402 20.9213 14.7979C20.9489 15.1939 21.1403 15.5992 21.4309 15.9057C21.7214 16.2124 22.1017 16.4123 22.4821 16.4428C22.8627 16.4734 23.2579 16.3583 23.6724 15.9438C24.0869 15.5293 24.202 15.1342 24.1713 14.7537C24.1408 14.3731 23.9409 13.9929 23.6342 13.7024C23.3277 13.4119 22.9225 13.2205 22.5265 13.1927C22.4773 13.1894 22.4279 13.1884 22.3786 13.1896L22.3785 13.1897ZM3.42559 13.5742C3.11544 13.5692 2.85284 13.6638 2.62139 13.8198C2.29239 14.0418 2.03677 14.4098 1.91651 14.8147C1.79625 15.2197 1.81221 15.6479 1.97608 15.9927C2.1398 16.3376 2.43824 16.6238 3.0044 16.7756C3.57066 16.9273 3.97042 16.8275 4.28467 16.6108C4.59893 16.394 4.82725 16.0313 4.92554 15.6205C5.02383 15.2097 4.98658 14.7626 4.8126 14.4059C4.63863 14.0492 4.34776 13.7716 3.84522 13.6368C3.71959 13.6032 3.60074 13.5839 3.48814 13.5774C3.46705 13.5762 3.4463 13.5747 3.42564 13.5743L3.42559 13.5742ZM8.0169 15.2802C7.49669 15.2802 7.1421 15.4734 6.88165 15.773C6.62139 16.0727 6.47042 16.4937 6.45904 16.916C6.44771 17.3382 6.57476 17.7483 6.82232 18.039C7.06973 18.3297 7.43082 18.5288 8.01705 18.5288C8.60323 18.5288 8.96431 18.3297 9.21177 18.039C9.45923 17.7483 9.58629 17.3382 9.57496 16.916C9.56358 16.4937 9.41114 16.0727 9.15074 15.773C8.89034 15.4735 8.53731 15.2803 8.01695 15.2803L8.0169 15.2802ZM17.4118 15.2802C16.8915 15.2802 16.537 15.4734 16.2766 15.773C16.0162 16.0727 15.8652 16.4937 15.8539 16.916C15.8425 17.3382 15.9696 17.7483 16.217 18.039C16.4645 18.3297 16.8256 18.5288 17.4119 18.5288C17.998 18.5288 18.3591 18.3297 18.6066 18.039C18.8541 17.7483 18.9811 17.3382 18.9697 16.916C18.9584 16.4937 18.8059 16.0727 18.5455 15.773C18.2852 15.4735 17.9321 15.2803 17.4118 15.2803V15.2802ZM5.91895 18.3426C5.18091 19.1547 4.94058 20.3899 5.24756 21.434C5.50049 21.3572 5.76148 21.3154 6.02266 21.3058C6.07247 21.304 6.12227 21.3039 6.17217 21.3043C6.32183 21.3056 6.47149 21.3164 6.61924 21.3378C7.69649 21.4941 8.72755 22.1296 9.41163 23.0544C11.1001 22.1807 11.2524 19.7411 10.083 18.3914C10.0294 18.4739 9.9709 18.5547 9.90601 18.6309C9.48917 19.1207 8.82945 19.4412 8.01695 19.4412C7.20445 19.4412 6.54478 19.1206 6.12794 18.6309C6.05099 18.5403 5.98113 18.4439 5.91895 18.3425V18.3426ZM6.05616 22.2153C5.63209 22.228 5.23326 22.3598 4.87823 22.6348C4.49273 22.9334 4.14703 23.4207 3.91534 24.1653H9.00567C8.50782 23.1495 7.47867 22.3848 6.48809 22.2412C6.34185 22.22 6.19752 22.211 6.05616 22.2153ZM17.746 22.2153C17.6389 22.2169 17.5306 22.2252 17.421 22.2412C16.4304 22.3848 15.4012 23.1495 14.9034 24.1653H19.9937C19.762 23.4207 19.4164 22.9334 19.0308 22.6348C18.6758 22.3599 18.2769 22.2279 17.8528 22.2152C17.8172 22.2144 17.7816 22.2144 17.746 22.2152L17.746 22.2153Z" fill="#138AEF"/>
</svg>
