<svg width="25" height="25" viewBox="0 0 25 25" fill="none" xmlns="http://www.w3.org/2000/svg">
<path d="M12.5 3.75C12.0027 3.75 11.5258 3.94754 11.1742 4.29917C10.8225 4.65081 10.625 5.12772 10.625 5.625C10.625 6.12228 10.8225 6.59919 11.1742 6.95083C11.5258 7.30246 12.0027 7.5 12.5 7.5C12.9973 7.5 13.4742 7.30246 13.8258 6.95083C14.1775 6.59919 14.375 6.12228 14.375 5.625C14.375 5.12772 14.1775 4.65081 13.8258 4.29917C13.4742 3.94754 12.9973 3.75 12.5 3.75ZM9.375 5.625C9.375 4.7962 9.70424 4.00134 10.2903 3.41529C10.8763 2.82924 11.6712 2.5 12.5 2.5C13.3288 2.5 14.1237 2.82924 14.7097 3.41529C15.2958 4.00134 15.625 4.7962 15.625 5.625C15.625 6.4538 15.2958 7.24866 14.7097 7.83471C14.1237 8.42076 13.3288 8.75 12.5 8.75C11.6712 8.75 10.8763 8.42076 10.2903 7.83471C9.70424 7.24866 9.375 6.4538 9.375 5.625ZM19.375 5C19.0435 5 18.7255 5.1317 18.4911 5.36612C18.2567 5.60054 18.125 5.91848 18.125 6.25C18.125 6.58152 18.2567 6.89946 18.4911 7.13388C18.7255 7.3683 19.0435 7.5 19.375 7.5C19.7065 7.5 20.0245 7.3683 20.2589 7.13388C20.4933 6.89946 20.625 6.58152 20.625 6.25C20.625 5.91848 20.4933 5.60054 20.2589 5.36612C20.0245 5.1317 19.7065 5 19.375 5ZM16.875 6.25C16.875 5.58696 17.1384 4.95107 17.6072 4.48223C18.0761 4.01339 18.712 3.75 19.375 3.75C20.038 3.75 20.6739 4.01339 21.1428 4.48223C21.6116 4.95107 21.875 5.58696 21.875 6.25C21.875 6.91304 21.6116 7.54893 21.1428 8.01777C20.6739 8.48661 20.038 8.75 19.375 8.75C18.712 8.75 18.0761 8.48661 17.6072 8.01777C17.1384 7.54893 16.875 6.91304 16.875 6.25ZM4.375 6.25C4.375 5.91848 4.5067 5.60054 4.74112 5.36612C4.97554 5.1317 5.29348 5 5.625 5C5.95652 5 6.27446 5.1317 6.50888 5.36612C6.7433 5.60054 6.875 5.91848 6.875 6.25C6.875 6.58152 6.7433 6.89946 6.50888 7.13388C6.27446 7.3683 5.95652 7.5 5.625 7.5C5.29348 7.5 4.97554 7.3683 4.74112 7.13388C4.5067 6.89946 4.375 6.58152 4.375 6.25ZM5.625 3.75C4.96196 3.75 4.32607 4.01339 3.85723 4.48223C3.38839 4.95107 3.125 5.58696 3.125 6.25C3.125 6.91304 3.38839 7.54893 3.85723 8.01777C4.32607 8.48661 4.96196 8.75 5.625 8.75C6.28804 8.75 6.92393 8.48661 7.39277 8.01777C7.86161 7.54893 8.125 6.91304 8.125 6.25C8.125 5.58696 7.86161 4.95107 7.39277 4.48223C6.92393 4.01339 6.28804 3.75 5.625 3.75ZM6.375 18.7475C6.03654 18.7644 5.69817 18.7124 5.38045 18.5945C5.06272 18.4767 4.77228 18.2954 4.52677 18.0618C4.28125 17.8282 4.08579 17.5472 3.95226 17.2357C3.81873 16.9242 3.74992 16.5889 3.75 16.25V11.5625C3.75 11.4796 3.78292 11.4001 3.84153 11.3415C3.90013 11.2829 3.97962 11.25 4.0625 11.25H6.2675C6.3175 10.7913 6.48 10.365 6.72375 10H4.0625C3.2 10 2.5 10.7 2.5 11.5625V16.25C2.49994 16.7851 2.61442 17.3141 2.83575 17.8013C3.05708 18.2886 3.38013 18.7228 3.78319 19.0748C4.18626 19.4269 4.66 19.6885 5.17258 19.8423C5.68517 19.9961 6.22473 20.0383 6.755 19.9662C6.58676 19.5741 6.45942 19.1657 6.375 18.7475ZM18.245 19.9662C18.7753 20.0383 19.3148 19.9961 19.8274 19.8423C20.34 19.6885 20.8137 19.4269 21.2168 19.0748C21.6199 18.7228 21.9429 18.2886 22.1642 17.8013C22.3856 17.3141 22.5001 16.7851 22.5 16.25V11.5625C22.5 10.7 21.8 10 20.9375 10H18.2763C18.5212 10.365 18.6825 10.7913 18.7325 11.25H20.9375C21.0204 11.25 21.0999 11.2829 21.1585 11.3415C21.2171 11.4001 21.25 11.4796 21.25 11.5625V16.25C21.2501 16.5889 21.1813 16.9242 21.0477 17.2357C20.9142 17.5472 20.7187 17.8282 20.4732 18.0618C20.2277 18.2954 19.9373 18.4767 19.6196 18.5945C19.3018 18.7124 18.9635 18.7644 18.625 18.7475C18.5406 19.1657 18.4132 19.5741 18.245 19.9662ZM9.0625 10C8.2 10 7.5 10.7 7.5 11.5625V17.5C7.5 18.8261 8.02678 20.0979 8.96447 21.0355C9.90215 21.9732 11.1739 22.5 12.5 22.5C13.8261 22.5 15.0979 21.9732 16.0355 21.0355C16.9732 20.0979 17.5 18.8261 17.5 17.5V11.5625C17.5 10.7 16.8 10 15.9375 10H9.0625ZM8.75 11.5625C8.75 11.4796 8.78292 11.4001 8.84153 11.3415C8.90013 11.2829 8.97962 11.25 9.0625 11.25H15.9375C16.0204 11.25 16.0999 11.2829 16.1585 11.3415C16.2171 11.4001 16.25 11.4796 16.25 11.5625V17.5C16.25 18.4946 15.8549 19.4484 15.1517 20.1517C14.4484 20.8549 13.4946 21.25 12.5 21.25C11.5054 21.25 10.5516 20.8549 9.84835 20.1517C9.14509 19.4484 8.75 18.4946 8.75 17.5V11.5625Z" fill="#138AEF"/>
</svg>
