<svg width="21" height="21" viewBox="0 0 21 21" fill="none" xmlns="http://www.w3.org/2000/svg">
<path d="M10.5 6.33331V10.5L13.1042 13.1041" stroke="#138AEF" stroke-width="1.5625" stroke-linecap="round" stroke-linejoin="round"/>
<path d="M2.51875 5.15729L1.7375 5.16041C1.73832 5.36635 1.82042 5.56363 1.96595 5.70935C2.11147 5.85507 2.30865 5.93744 2.51458 5.93854L2.51875 5.15729ZM5.16667 5.95104C5.26926 5.95151 5.37095 5.93178 5.46592 5.89296C5.56088 5.85414 5.64728 5.797 5.72016 5.72479C5.79305 5.65258 5.85099 5.56673 5.8907 5.47213C5.9304 5.37752 5.95108 5.27603 5.95156 5.17343C5.95204 5.07084 5.93231 4.96915 5.89349 4.87418C5.85467 4.77921 5.79752 4.69282 5.72532 4.61994C5.65311 4.54705 5.56725 4.4891 5.47265 4.4494C5.37805 4.4097 5.27655 4.38901 5.17396 4.38854L5.16667 5.95104ZM3.28646 2.50104C3.28535 2.29383 3.20198 2.09556 3.05469 1.94983C2.9074 1.8041 2.70824 1.72285 2.50104 1.72395C2.29384 1.72506 2.09557 1.80843 1.94983 1.95572C1.8041 2.10302 1.72285 2.30217 1.72396 2.50937L3.28646 2.50104ZM1.90625 10.5C1.90625 10.2928 1.82394 10.0941 1.67743 9.94757C1.53091 9.80105 1.3322 9.71874 1.125 9.71874C0.9178 9.71874 0.719086 9.80105 0.572573 9.94757C0.42606 10.0941 0.34375 10.2928 0.34375 10.5H1.90625ZM15.5781 19.2969C15.6707 19.2476 15.7524 19.1801 15.8183 19.0986C15.8843 19.0171 15.9331 18.9231 15.962 18.8223C15.9909 18.7214 15.9991 18.6158 15.9863 18.5118C15.9735 18.4077 15.9398 18.3072 15.8874 18.2164C15.8349 18.1256 15.7647 18.0463 15.6809 17.9832C15.5971 17.9201 15.5015 17.8746 15.3998 17.8492C15.298 17.8239 15.1922 17.8193 15.0886 17.8357C14.985 17.8521 14.8858 17.8892 14.7969 17.9448L15.5781 19.2969ZM17.9448 14.7969C17.8892 14.8858 17.8521 14.985 17.8357 15.0886C17.8193 15.1922 17.8239 15.298 17.8492 15.3998C17.8746 15.5015 17.9201 15.5971 17.9832 15.6809C18.0463 15.7647 18.1256 15.8349 18.2164 15.8874C18.3072 15.9398 18.4077 15.9735 18.5118 15.9863C18.6159 15.9991 18.7215 15.9909 18.8223 15.962C18.9231 15.9331 19.0171 15.8843 19.0986 15.8183C19.1802 15.7524 19.2476 15.6707 19.2969 15.5781L17.9448 14.7969ZM3.35417 3.28124C3.20692 3.42711 3.12364 3.6255 3.12267 3.83277C3.12169 4.04004 3.20309 4.2392 3.34896 4.38645C3.49483 4.5337 3.69322 4.61698 3.90048 4.61795C4.10775 4.61893 4.30692 4.53753 4.45417 4.39166L3.35417 3.28124ZM17.6479 3.35104C13.6687 -0.628131 7.23854 -0.667715 3.28542 3.28541L4.38958 4.38854C7.72292 1.05624 13.1635 1.07604 16.5437 4.45624L17.6479 3.35104ZM3.28542 3.28541L1.96667 4.60416L3.07083 5.70833L4.39062 4.39062L3.28542 3.28541ZM2.51458 5.93854L5.16667 5.95104L5.17396 4.38854L2.52292 4.37603L2.51458 5.93854ZM3.3 5.15312L3.28646 2.50104L1.72396 2.50937L1.7375 5.16041L3.3 5.15312ZM10.5 1.90624C12.7792 1.90624 14.9651 2.81165 16.5767 4.42329C18.1883 6.03493 19.0938 8.22079 19.0938 10.5H20.6562C20.6562 7.80639 19.5862 5.22311 17.6816 3.31844C15.7769 1.41377 13.1936 0.343744 10.5 0.343744V1.90624ZM10.5 19.0937C8.2208 19.0937 6.03494 18.1883 4.4233 16.5767C2.81166 14.9651 1.90625 12.7792 1.90625 10.5H0.34375C0.34375 13.1936 1.41378 15.7769 3.31845 17.6815C5.22311 19.5862 7.80639 20.6562 10.5 20.6562V19.0937ZM14.7969 17.9448C13.491 18.7001 12.0086 19.0965 10.5 19.0937V20.6562C12.349 20.6562 14.0833 20.1615 15.5781 19.2969L14.7969 17.9448ZM19.0938 10.5C19.0965 12.0086 18.7001 13.491 17.9448 14.7969L19.2969 15.5781C20.1897 14.0348 20.6587 12.2829 20.6562 10.5H19.0938ZM4.45417 4.39166C6.06136 2.79598 8.23521 1.90299 10.5 1.90624V0.343744C7.82329 0.340296 5.2541 1.39577 3.35417 3.28124L4.45417 4.39166Z" fill="#138AEF"/>
</svg>
